<svg xmlns="http://www.w3.org/2000/svg" viewBox="0 0 32 32" role="img" aria-label="DocForge">
  <title>DocForge</title>
  <defs>
    <linearGradient id="df-bg" x1="0" y1="0" x2="0" y2="1">
      <stop offset="0" stop-color="#6366f1"/>
      <stop offset="1" stop-color="#4338ca"/>
    </linearGradient>
  </defs>
  <rect width="32" height="32" rx="7" fill="url(#df-bg)"/>
  <path d="M9 7h9l5 5v13a1 1 0 0 1-1 1H9a1 1 0 0 1-1-1V8a1 1 0 0 1 1-1z"
        fill="#f5f3ff" opacity="0.96"/>
  <path d="M18 7v4a1 1 0 0 0 1 1h4" fill="none" stroke="#c7d2fe" stroke-width="1.2"/>
  <path d="M14.2 16.5c-1.4 0-1.4 1.5-1.4 2.5s0 2.5 1.4 2.5"
        fill="none" stroke="#4338ca" stroke-width="1.6" stroke-linecap="round"/>
  <path d="M17.8 16.5c1.4 0 1.4 1.5 1.4 2.5s0 2.5-1.4 2.5"
        fill="none" stroke="#4338ca" stroke-width="1.6" stroke-linecap="round"/>
  <circle cx="16" cy="19" r="0.7" fill="#6366f1"/>
</svg>
